<mxfile host="app.diagrams.net" agent="Mozilla/5.0 (Windows NT 10.0; Win64; x64; rv:128.0) Gecko/20100101 Firefox/128.0" version="24.7.7">
  <diagram name="Page-1" id="jeqZY12P-d-1--bPKHWR">
    <mxGraphModel dx="1434" dy="726" grid="1" gridSize="10" guides="1" tooltips="1" connect="1" arrows="1" fold="1" page="1" pageScale="1" pageWidth="1169" pageHeight="827" math="0" shadow="0">
      <root>
        <mxCell id="0" />
        <mxCell id="1" parent="0" />
        <mxCell id="YLm-naSjE3QVM8Hl9lih-1" value="clients" style="shape=umlActor;verticalLabelPosition=bottom;verticalAlign=top;html=1;outlineConnect=0;" vertex="1" parent="1">
          <mxGeometry x="100" y="270" width="70" height="100" as="geometry" />
        </mxCell>
        <mxCell id="YLm-naSjE3QVM8Hl9lih-2" value="magasin" style="ellipse;whiteSpace=wrap;html=1;" vertex="1" parent="1">
          <mxGeometry x="340" y="160" width="120" height="80" as="geometry" />
        </mxCell>
        <mxCell id="YLm-naSjE3QVM8Hl9lih-3" value="rayon" style="ellipse;whiteSpace=wrap;html=1;" vertex="1" parent="1">
          <mxGeometry x="550" y="160" width="150" height="80" as="geometry" />
        </mxCell>
        <mxCell id="YLm-naSjE3QVM8Hl9lih-4" value="renseignement " style="ellipse;whiteSpace=wrap;html=1;" vertex="1" parent="1">
          <mxGeometry x="347" y="290" width="120" height="80" as="geometry" />
        </mxCell>
        <mxCell id="YLm-naSjE3QVM8Hl9lih-5" value="paye" style="ellipse;whiteSpace=wrap;html=1;" vertex="1" parent="1">
          <mxGeometry x="748" y="550" width="120" height="80" as="geometry" />
        </mxCell>
        <mxCell id="YLm-naSjE3QVM8Hl9lih-6" value="" style="endArrow=none;html=1;rounded=0;" edge="1" parent="1">
          <mxGeometry width="50" height="50" relative="1" as="geometry">
            <mxPoint x="337.79144999127993" y="320.29857499854666" as="sourcePoint" />
            <mxPoint x="339.8202493458573" y="214.04493766353562" as="targetPoint" />
            <Array as="points">
              <mxPoint x="336" y="320" />
              <mxPoint x="210" y="310" />
            </Array>
          </mxGeometry>
        </mxCell>
        <mxCell id="YLm-naSjE3QVM8Hl9lih-7" value="" style="endArrow=none;html=1;rounded=0;" edge="1" parent="1" target="YLm-naSjE3QVM8Hl9lih-5">
          <mxGeometry width="50" height="50" relative="1" as="geometry">
            <mxPoint x="620" y="494" as="sourcePoint" />
            <mxPoint x="750" y="574" as="targetPoint" />
          </mxGeometry>
        </mxCell>
        <mxCell id="YLm-naSjE3QVM8Hl9lih-12" value="" style="endArrow=classic;html=1;rounded=0;" edge="1" parent="1">
          <mxGeometry width="50" height="50" relative="1" as="geometry">
            <mxPoint x="469" y="200" as="sourcePoint" />
            <mxPoint x="549" y="200" as="targetPoint" />
          </mxGeometry>
        </mxCell>
        <mxCell id="YLm-naSjE3QVM8Hl9lih-13" value="faire achat" style="ellipse;whiteSpace=wrap;html=1;" vertex="1" parent="1">
          <mxGeometry x="550" y="414" width="120" height="80" as="geometry" />
        </mxCell>
        <mxCell id="YLm-naSjE3QVM8Hl9lih-14" value="" style="endArrow=none;html=1;rounded=0;entryX=-0.025;entryY=0.425;entryDx=0;entryDy=0;entryPerimeter=0;" edge="1" parent="1" target="YLm-naSjE3QVM8Hl9lih-21">
          <mxGeometry width="50" height="50" relative="1" as="geometry">
            <mxPoint x="210" y="330" as="sourcePoint" />
            <mxPoint x="610" y="380" as="targetPoint" />
            <Array as="points">
              <mxPoint x="230" y="320" />
              <mxPoint x="400" y="420" />
            </Array>
          </mxGeometry>
        </mxCell>
        <mxCell id="YLm-naSjE3QVM8Hl9lih-16" value="vendeur" style="shape=umlActor;verticalLabelPosition=bottom;verticalAlign=top;html=1;outlineConnect=0;" vertex="1" parent="1">
          <mxGeometry x="1010" y="200" width="30" height="60" as="geometry" />
        </mxCell>
        <mxCell id="YLm-naSjE3QVM8Hl9lih-21" value="Prend articles " style="ellipse;whiteSpace=wrap;html=1;" vertex="1" parent="1">
          <mxGeometry x="347" y="380" width="120" height="80" as="geometry" />
        </mxCell>
        <mxCell id="YLm-naSjE3QVM8Hl9lih-22" value="faire un essai" style="ellipse;whiteSpace=wrap;html=1;" vertex="1" parent="1">
          <mxGeometry x="550" y="310" width="120" height="80" as="geometry" />
        </mxCell>
        <mxCell id="YLm-naSjE3QVM8Hl9lih-23" value="" style="endArrow=none;html=1;rounded=0;entryX=0;entryY=0.325;entryDx=0;entryDy=0;entryPerimeter=0;exitX=0.975;exitY=0.6;exitDx=0;exitDy=0;exitPerimeter=0;" edge="1" parent="1" source="YLm-naSjE3QVM8Hl9lih-21" target="YLm-naSjE3QVM8Hl9lih-13">
          <mxGeometry width="50" height="50" relative="1" as="geometry">
            <mxPoint x="470" y="460" as="sourcePoint" />
            <mxPoint x="520" y="410" as="targetPoint" />
          </mxGeometry>
        </mxCell>
        <mxCell id="YLm-naSjE3QVM8Hl9lih-24" value="" style="endArrow=none;dashed=1;html=1;dashPattern=1 3;strokeWidth=2;rounded=0;" edge="1" parent="1" target="YLm-naSjE3QVM8Hl9lih-22">
          <mxGeometry width="50" height="50" relative="1" as="geometry">
            <mxPoint x="470" y="400" as="sourcePoint" />
            <mxPoint x="540" y="350" as="targetPoint" />
          </mxGeometry>
        </mxCell>
        <mxCell id="YLm-naSjE3QVM8Hl9lih-25" value="chèque " style="ellipse;whiteSpace=wrap;html=1;" vertex="1" parent="1">
          <mxGeometry x="928" y="470" width="120" height="80" as="geometry" />
        </mxCell>
        <mxCell id="YLm-naSjE3QVM8Hl9lih-26" value="Espèces " style="ellipse;whiteSpace=wrap;html=1;" vertex="1" parent="1">
          <mxGeometry x="918" y="570" width="120" height="80" as="geometry" />
        </mxCell>
        <mxCell id="YLm-naSjE3QVM8Hl9lih-27" value="CE " style="ellipse;whiteSpace=wrap;html=1;" vertex="1" parent="1">
          <mxGeometry x="928" y="670" width="120" height="80" as="geometry" />
        </mxCell>
        <mxCell id="YLm-naSjE3QVM8Hl9lih-28" value="" style="endArrow=classic;html=1;rounded=0;" edge="1" parent="1" source="YLm-naSjE3QVM8Hl9lih-25" target="YLm-naSjE3QVM8Hl9lih-5">
          <mxGeometry width="50" height="50" relative="1" as="geometry">
            <mxPoint x="858" y="530" as="sourcePoint" />
            <mxPoint x="908" y="480" as="targetPoint" />
          </mxGeometry>
        </mxCell>
        <mxCell id="YLm-naSjE3QVM8Hl9lih-29" value="" style="endArrow=classic;html=1;rounded=0;entryX=0.625;entryY=-0.025;entryDx=0;entryDy=0;entryPerimeter=0;exitX=0.083;exitY=0.238;exitDx=0;exitDy=0;exitPerimeter=0;" edge="1" parent="1" source="YLm-naSjE3QVM8Hl9lih-26">
          <mxGeometry width="50" height="50" relative="1" as="geometry">
            <mxPoint x="928" y="579.5" as="sourcePoint" />
            <mxPoint x="858" y="600.5" as="targetPoint" />
          </mxGeometry>
        </mxCell>
        <mxCell id="YLm-naSjE3QVM8Hl9lih-30" value="" style="endArrow=classic;html=1;rounded=0;" edge="1" parent="1">
          <mxGeometry width="50" height="50" relative="1" as="geometry">
            <mxPoint x="918" y="690" as="sourcePoint" />
            <mxPoint x="858" y="640" as="targetPoint" />
          </mxGeometry>
        </mxCell>
        <mxCell id="YLm-naSjE3QVM8Hl9lih-31" value="APPORTER&amp;nbsp; CODE PROMO" style="ellipse;whiteSpace=wrap;html=1;" vertex="1" parent="1">
          <mxGeometry x="588" y="560" width="120" height="80" as="geometry" />
        </mxCell>
        <mxCell id="YLm-naSjE3QVM8Hl9lih-32" value="" style="endArrow=none;dashed=1;html=1;dashPattern=1 3;strokeWidth=2;rounded=0;exitX=0.392;exitY=0.013;exitDx=0;exitDy=0;exitPerimeter=0;" edge="1" parent="1" source="YLm-naSjE3QVM8Hl9lih-31">
          <mxGeometry width="50" height="50" relative="1" as="geometry">
            <mxPoint x="640" y="550" as="sourcePoint" />
            <mxPoint x="620" y="500" as="targetPoint" />
            <Array as="points">
              <mxPoint x="630" y="540" />
            </Array>
          </mxGeometry>
        </mxCell>
        <mxCell id="YLm-naSjE3QVM8Hl9lih-33" value="" style="endArrow=none;html=1;rounded=0;" edge="1" parent="1" source="YLm-naSjE3QVM8Hl9lih-4">
          <mxGeometry width="50" height="50" relative="1" as="geometry">
            <mxPoint x="1040" y="460" as="sourcePoint" />
            <mxPoint x="980" y="250" as="targetPoint" />
          </mxGeometry>
        </mxCell>
      </root>
    </mxGraphModel>
  </diagram>
</mxfile>
